<svg xmlns="http://www.w3.org/2000/svg" viewBox="0 0 100 100" fill="none">
  <circle cx="50" cy="50" r="48" fill="#14532d" />
  <circle cx="50" cy="50" r="46" fill="#15803d" stroke="#22c55e" stroke-width="3" />
  
  <!-- Continents in Bright Emerald -->
  <path d="M 26 34 Q 38 18 54 22 Q 68 26 72 38 Q 78 54 66 70 Q 52 82 38 74 Q 26 64 26 34 Z" fill="#4ade80" opacity="0.9" />
  <path d="M 62 26 Q 80 22 86 34 Q 90 48 78 60 Q 70 52 66 40 Z" fill="#4ade80" opacity="0.9" />
  <path d="M 32 72 Q 44 84 56 88 Q 62 92 52 94 Q 36 92 32 72 Z" fill="#4ade80" opacity="0.9" />
  
  <!-- High-contrast bold FO3 text overlay -->
  <rect x="14" y="34" width="72" height="32" rx="16" fill="#052e16" fill-opacity="0.85" stroke="#4ade80" stroke-width="1.5" />
  <text x="50" y="56" font-family="system-ui, -apple-system, sans-serif" font-weight="900" font-size="20" fill="#ffffff" text-anchor="middle" letter-spacing="0.5">FO3</text>
</svg>